<svg width="18" height="18" viewBox="0 0 20 21" fill="none" xmlns="http://www.w3.org/2000/svg">
<path d="M8.8556 6.27656C8.0225 5.81512 7 6.41766 7 7.37005V12.8732C7 13.8256 8.0225 14.4281 8.8556 13.9667L14.6134 10.7777C14.852 10.6456 15 10.3943 15 10.1216C15 9.84888 14.852 9.59768 14.6134 9.46548L8.8556 6.27656ZM10 0.121582C4.47715 0.121582 0 4.59873 0 10.1216C0 15.6444 4.47715 20.1216 10 20.1216C15.5228 20.1216 20 15.6444 20 10.1216C20 4.59873 15.5228 0.121582 10 0.121582ZM1.5 10.1216C1.5 5.42716 5.30558 1.62158 10 1.62158C14.6944 1.62158 18.5 5.42716 18.5 10.1216C18.5 14.816 14.6944 18.6216 10 18.6216C5.30558 18.6216 1.5 14.816 1.5 10.1216Z" fill="#F8F7F7" fill-opacity="0.8"/>
</svg>
